<svg xmlns="http://www.w3.org/2000/svg" id="svg12" version="1.1" height="480" width="480" viewBox="0 0 48 48"><path id="path2" d="M35.76 26.36h.01S32 31.89 28.83 36c-2.74 3.55-3.54 6.59-3.77 8.06-.09.54-.53.94-1.06.94s-.97-.4-1.06-.94c-.23-1.47-1.03-4.51-3.77-8.06l-1.28-1.7L28.24 22l8.33-9.88a14.85 14.85 0 0 1-.81 14.24z" fill="#48b564"/><path id="path4" d="M28.24 22L17.89 34.3c-2.82-3.78-5.66-7.94-5.66-7.94h.01c-.3-.48-.57-.97-.8-1.48L19.76 15a5.5 5.5 0 0 0 8.48 7z" fill="#fcc60e"/><path id="path6" d="M28.4 4.74l-8.57 10.18-6.56-5.72A13.75 13.75 0 0 1 24 4c1.54 0 3.02.26 4.4.74z" fill="#2c85eb"/><path id="path8" d="M19.83 14.92l-.07.08-8.32 9.88A14.78 14.78 0 0 1 10 18.5c0-3.54 1.23-6.79 3.27-9.3l6.56 5.72z" fill="#ed5748"/><path id="path10" d="M28.24 22a5.5 5.5 0 0 0-8.48-7L28.4 4.74a14.13 14.13 0 0 1 8.17 7.38L28.24 22z" fill="#5695f6"/></svg>
