<?xml version="1.0" encoding="UTF-8" standalone="no"?>
<svg
   xmlns:dc="http://purl.org/dc/elements/1.1/"
   xmlns:cc="http://creativecommons.org/ns#"
   xmlns:rdf="http://www.w3.org/1999/02/22-rdf-syntax-ns#"
   xmlns:svg="http://www.w3.org/2000/svg"
   xmlns="http://www.w3.org/2000/svg"
   xmlns:sodipodi="http://sodipodi.sourceforge.net/DTD/sodipodi-0.dtd"
   xmlns:inkscape="http://www.inkscape.org/namespaces/inkscape"
   inkscape:export-ydpi="192"
   inkscape:export-xdpi="192"
   inkscape:export-filename="/home/b0/Desktop/paraglidebulgaria.png"
   inkscape:version="1.0 (4035a4fb49, 2020-05-01)"
   sodipodi:docname="paraglidebulgaria.svg"
   id="svg36"
   viewBox="0 0 135.46496 135.46496"
   version="1.1"
   height="512"
   width="512">
  <metadata
     id="metadata42">
    <rdf:RDF>
      <cc:Work
         rdf:about="">
        <dc:format>image/svg+xml</dc:format>
        <dc:type
           rdf:resource="http://purl.org/dc/dcmitype/StillImage" />
        <dc:title />
      </cc:Work>
    </rdf:RDF>
  </metadata>
  <defs
     id="defs40">
    <rect
       x="167.01613"
       y="191.11919"
       width="114.24442"
       height="108.98735"
       id="rect884" />
  </defs>
  <sodipodi:namedview
     inkscape:current-layer="layer2"
     inkscape:cy="234.50681"
     inkscape:cx="330.02536"
     inkscape:zoom="1.5060761"
     showgrid="false"
     id="namedview38"
     inkscape:window-height="480"
     inkscape:window-width="640"
     inkscape:pageshadow="2"
     inkscape:pageopacity="0"
     guidetolerance="10"
     gridtolerance="10"
     objecttolerance="10"
     borderopacity="1"
     bordercolor="#666666"
     pagecolor="#ffffff"
     inkscape:document-rotation="0"
     inkscape:pagecheckerboard="true"
     units="px"
     inkscape:snap-page="true"
     inkscape:showpageshadow="false"
     borderlayer="true"
     showborder="true"
     inkscape:snap-global="false" />
  <g
     inkscape:groupmode="layer"
     id="layer1"
     inkscape:label="shadow"
     style="display:inline"
     sodipodi:insensitive="true">
    <circle
       inkscape:export-ydpi="96"
       inkscape:export-xdpi="96"
       r="67.732483"
       cy="67.732483"
       cx="67.732483"
       id="path861"
       style="display:inline;fill:#c6b297;fill-opacity:1;stroke:none;stroke-width:0.26458;stroke-miterlimit:4;stroke-dasharray:none;stop-color:#000000" />
  </g>
  <g
     sodipodi:insensitive="true"
     inkscape:groupmode="layer"
     id="layer3"
     inkscape:label="bg"
     style="display:inline">
    <path
       id="rect859"
       style="display:inline;fill:#f7f3ef;fill-opacity:1;stroke-width:2.60818;stop-color:#000000"
       d="M 68.26164,0.43402973 A 66.769293,66.769293 0 0 0 1.4923497,67.20332 66.769293,66.769293 0 0 0 68.26164,133.97261 66.769293,66.769293 0 0 0 135.03093,67.20332 66.769293,66.769293 0 0 0 68.26164,0.43402973 Z" />
  </g>
  <g
     sodipodi:insensitive="true"
     inkscape:groupmode="layer"
     id="layer4"
     inkscape:label="bul"
     style="display:inline">
    <g
       id="g1359"
       transform="matrix(1.0462732,0.05726574,-0.05726574,1.0462732,243.67305,-40.798272)">
      <path
         id="path1302"
         d="m -211.02659,76.224858 c -0.78856,1.216892 -0.37434,3.042189 -1.15975,4.25966 -0.93352,0.996578 -2.89304,0.440471 -3.68131,1.655788 -1.78972,2.589931 0.20478,11.127457 2.03545,13.408835 0.29279,0.442779 6.56173,5.098199 7.80338,6.495009 0.88024,1.32706 -4.20824,7.58773 -4.85521,8.05286 -6.6716,3.63457 1.35682,-6.36464 -5.56346,1.69903 -0.71774,0.841 0.34469,2.20281 0.3177,3.36621 -0.17289,0.93964 -0.52728,1.84772 -0.51947,2.82224 0.11364,0.40819 0.72587,0.13367 1.05469,0.38944 0.47409,0.47452 0.95104,0.9509 0.99045,1.73598 0.4594,2.61486 -2.15041,2.52388 -3.36833,4.04905 -0.0692,0.37616 4.10016,5.22893 4.42927,5.48312 0.98333,0.76674 2.35651,0.434 3.16199,1.168 1.42324,1.42698 2.72628,5.55724 3.75246,7.10804 0.16512,0.0304 -0.99468,8.06924 -1.63858,10.39581 l 2.27352,0.41852 c 0.72716,0.13379 1.52994,0.86537 2.17692,0.40025 0.79294,-0.24138 1.06995,-1.74723 1.86633,-1.9896 2.23814,-0.95017 4.81899,0.3037 7.13447,-0.0497 5.42517,-0.9463 7.10931,-2.96975 10.75792,-4.43983 0.61065,-0.27653 1.23999,1.39659 2.03321,1.15364 1.12393,0.0115 2.01483,-1.77086 3.03419,-1.19114 1.41515,0.45403 1.39805,2.58943 2.52949,3.57705 0.11338,0.40977 0.79553,-0.2442 1.12278,0.0113 0.50983,0.28908 0.62944,1.67306 1.20749,1.58252 0.7632,-0.0532 1.03981,-1.55788 1.79856,-1.61353 2.09943,-0.19647 4.25137,1.36626 5.89007,2.63924 0.32567,0.25519 -0.208,1.1286 0.33501,1.22852 2.68815,0.68989 7.48373,-1.92788 10.1941,-2.40225 0.181,0.0333 6.14768,-0.81364 6.14768,-0.81364 4.58029,-2.46538 -5.87386,-9.835 1.47628,-10.03819 0.54301,0.0999 1.44921,0.2665 2.31976,0.62032 -1.11163,-3.12052 2.41127,-1.89139 3.74097,-3.00709 0.93638,-0.99442 0.19244,-3.07736 1.45607,-3.81631 1.0782,-0.77469 2.53677,0.46667 3.91091,0.13535 l 3.74098,-3.00709 c 4.58652,-1.49115 5.23481,2.13156 9.23285,3.83865 0.14339,0.22003 -0.0769,-0.5984 0.31642,-0.71967 1.44493,-0.7072 2.77667,-1.82427 4.33152,-2.12072 1.15838,-0.17582 2.20768,0.21293 3.3316,0.22446 l 0.36404,0.0668 c -0.077,-0.59835 -0.51666,-1.26164 -0.92409,-2.11604 -0.76815,-0.91916 -4.30797,-4.09905 -4.45451,-4.31966 0.0692,-0.37617 0.71911,-0.84095 0.60417,-1.25101 -1.05904,-5.44916 -10.28509,-0.14334 -6.19144,-4.05861 0.9348,-0.99472 2.63609,-1.06898 3.56804,-2.06585 0.4328,-0.30927 -0.55118,-1.07293 -0.26621,-1.60467 0.31944,-0.71904 1.26051,-0.74108 1.7641,-1.42623 0.0345,-0.1873 -0.62329,-0.69697 -0.44229,-0.66367 1.01056,-0.39823 2.54012,0.46705 3.2563,-0.37426 0.71934,-0.84072 -0.0929,-2.54576 -0.0675,-3.70944 -0.17028,-3.14258 0.35407,-4.99204 0.54894,-8.06744 0.0692,-0.376172 -1.0546,-0.389468 -0.98538,-0.765641 0.46411,-0.497151 1.73588,-0.262868 2.05531,-0.981904 2.75742,-3.772231 -1.63068,-4.386196 5.42823,-5.031894 0.93977,-0.02235 1.6039,1.461893 2.3987,1.219233 1.40703,-0.51892 1.84194,-4.913748 1.98169,-9.750179 l -0.36403,-0.06675 c -3.00474,0.03129 -8.03177,0.857163 -10.30119,-2.090743 -0.77131,-0.919734 -0.46466,-3.58607 -1.6575,-3.223008 -0.57905,0.08709 -1.07983,0.774464 -1.65887,0.861565 -4.80542,1.646124 1.69381,-1.05037 -3.05803,-1.729446 -1.44959,-0.266728 -2.85032,1.226438 -4.33625,1.148295 -3.15255,-0.191165 0.21871,-4.239251 -8.53063,-2.54262 -3.72535,0.870156 -10.62842,2.71123 -13.86614,5.034722 -3.67182,2.630895 -4.94193,6.483238 -9.41953,8.381702 -4.04164,1.589775 -6.4832,-0.415175 -10.07824,-1.270309 -2.86758,-0.722906 -5.91598,-1.479016 -8.80893,-1.038243 -1.15838,0.175815 -1.79773,1.615368 -2.95582,1.789561 -5.42388,0.948161 -10.85561,-3.164171 -16.0371,-3.5334 -4.06101,-0.356696 -5.9526,2.795518 -9.96131,0.111754 -2.84095,-1.884724 4.81447,-4.754222 3.31916,-5.807176 -1.1283,-0.987048 -3.89387,-2.271875 -6.04212,-3.835502 z"
         style="display:inline;fill:#6dc66d;fill-opacity:1;fill-rule:nonzero;stroke:none;stroke-width:1.60036" />
      <path
         style="display:inline;fill:#a2dba2;fill-opacity:1;fill-rule:nonzero;stroke:none;stroke-width:1.60036"
         d="m -209.77615,75.285982 c -0.78856,1.216892 -0.37434,3.042189 -1.15975,4.25966 -0.93352,0.996578 -2.89304,0.440471 -3.68131,1.655788 -1.78972,2.589931 0.20478,11.127457 2.03545,13.408835 0.29279,0.442779 6.56173,5.098199 7.80338,6.495005 0.88024,1.32706 -4.20824,7.58773 -4.85521,8.05286 -6.6716,3.63457 1.35682,-6.36464 -5.56346,1.69903 -0.71774,0.841 0.34469,2.20281 0.3177,3.36621 -0.17289,0.93964 -0.52728,1.84772 -0.51947,2.82224 0.11364,0.40819 0.72587,0.13367 1.05469,0.38944 0.47409,0.47452 0.95104,0.9509 0.99045,1.73598 0.4594,2.61486 -2.15041,2.52388 -3.36833,4.04905 -0.0692,0.37616 4.10016,5.22893 4.42927,5.48312 0.98333,0.76674 2.35651,0.434 3.16199,1.168 1.42324,1.42698 2.72628,5.55724 3.75246,7.10804 0.16512,0.0304 -0.99468,8.06924 -1.63858,10.39581 l 2.27352,0.41852 c 0.72716,0.13379 1.52994,0.86537 2.17692,0.40025 0.79294,-0.24138 1.06995,-1.74723 1.86633,-1.9896 2.23814,-0.95017 4.81899,0.3037 7.13447,-0.0497 5.42517,-0.9463 7.10931,-2.96975 10.75792,-4.43983 0.61065,-0.27653 1.23999,1.39659 2.03321,1.15364 1.12393,0.0115 2.01483,-1.77086 3.03419,-1.19114 1.41515,0.45403 1.39805,2.58943 2.52949,3.57705 0.11338,0.40977 0.79553,-0.2442 1.12278,0.0113 0.50983,0.28908 0.62944,1.67306 1.20749,1.58252 0.7632,-0.0532 1.03981,-1.55788 1.79856,-1.61353 2.09943,-0.19647 4.25137,1.36626 5.89007,2.63924 0.32567,0.25519 -0.208,1.1286 0.33501,1.22852 2.68815,0.68989 7.48373,-1.92788 10.1941,-2.40225 0.181,0.0333 6.14768,-0.81364 6.14768,-0.81364 4.58029,-2.46538 -5.87386,-9.835 1.47628,-10.03819 0.54301,0.0999 1.44921,0.2665 2.31976,0.62032 -1.11163,-3.12052 2.41127,-1.89139 3.74097,-3.00709 0.93638,-0.99442 0.19244,-3.07736 1.45607,-3.81631 1.0782,-0.77469 2.53677,0.46667 3.91091,0.13535 l 3.74098,-3.00709 c 4.58652,-1.49115 5.23481,2.13156 9.23285,3.83865 0.14339,0.22003 -0.0769,-0.5984 0.31642,-0.71967 1.44493,-0.7072 2.77667,-1.82427 4.33152,-2.12072 1.15838,-0.17582 2.20768,0.21293 3.3316,0.22446 l 0.36404,0.0668 c -0.077,-0.59835 -0.51666,-1.26164 -0.92409,-2.11604 -0.76815,-0.91916 -4.30797,-4.09905 -4.45451,-4.31966 0.0692,-0.37617 0.71911,-0.84095 0.60417,-1.25101 -1.05904,-5.44916 -10.28509,-0.14334 -6.19144,-4.05861 0.9348,-0.99472 2.63609,-1.06898 3.56804,-2.06585 0.4328,-0.30927 -0.55118,-1.07293 -0.26621,-1.60467 0.31944,-0.71904 1.26051,-0.74108 1.7641,-1.42623 0.0345,-0.1873 -0.62329,-0.69697 -0.44229,-0.66367 1.01056,-0.39823 2.54012,0.46705 3.2563,-0.37426 0.71934,-0.84072 -0.0929,-2.54576 -0.0675,-3.70944 -0.17028,-3.14258 0.35407,-4.99204 0.54894,-8.067436 0.0692,-0.376172 -1.0546,-0.389468 -0.98538,-0.765641 0.46411,-0.497151 1.73588,-0.262868 2.05531,-0.981904 2.75742,-3.772231 -1.63068,-4.386196 5.42823,-5.031894 0.93977,-0.02235 1.6039,1.461893 2.3987,1.219233 1.40703,-0.51892 1.84194,-4.913748 1.98169,-9.750179 l -0.36403,-0.06675 c -3.00474,0.03129 -8.03177,0.857163 -10.30119,-2.090743 -0.77131,-0.919734 -0.46466,-3.58607 -1.6575,-3.223008 -0.57905,0.08709 -1.07983,0.774464 -1.65887,0.861565 -4.80542,1.646124 1.69381,-1.05037 -3.05803,-1.729446 -1.44959,-0.266728 -2.85032,1.226438 -4.33625,1.148295 -3.15255,-0.191165 0.21871,-4.239251 -8.53063,-2.54262 -3.72535,0.870156 -10.62842,2.71123 -13.86614,5.034722 -3.67182,2.630895 -4.94193,6.483238 -9.41953,8.381702 -4.04164,1.589775 -6.4832,-0.415175 -10.07824,-1.270309 -2.86758,-0.722906 -5.91598,-1.479016 -8.80893,-1.038243 -1.15838,0.175815 -1.79773,1.615368 -2.95582,1.789561 -5.42388,0.948161 -10.85561,-3.164171 -16.0371,-3.5334 -4.06101,-0.356696 -5.9526,2.795518 -9.96131,0.111754 -2.84095,-1.884724 4.81447,-4.754222 3.31916,-5.807176 -1.1283,-0.987048 -3.89387,-2.271875 -6.04212,-3.835502 z"
         id="path1353" />
    </g>
  </g>
  <g
     inkscape:groupmode="layer"
     id="layer2"
     inkscape:label="para"
     style="display:inline">
    <g
       transform="matrix(1.0826861,0,0,1.0826861,-4.8353027,-1.5500054)"
       id="g915">
      <path
         style="color:#000000;font-variant-ligatures:normal;font-variant-position:normal;font-variant-caps:normal;font-variant-numeric:normal;font-variant-alternates:normal;font-feature-settings:normal;text-indent:0;text-decoration:none;text-decoration-line:none;text-decoration-style:solid;text-decoration-color:#000000;text-transform:none;text-orientation:mixed;dominant-baseline:auto;white-space:normal;shape-padding:0;isolation:auto;mix-blend-mode:normal;solid-color:#000000;fill:#ffffff;fill-opacity:0.229431;fill-rule:evenodd;stroke:none;stroke-width:1.16872;stroke-miterlimit:4;stroke-dasharray:none;paint-order:stroke markers fill;color-rendering:auto;image-rendering:auto;shape-rendering:auto"
         d="m 96.110117,63.100086 c -0.335141,-0.193077 -0.72311,-0.36488 -1.166475,-0.51034 -0.152563,-0.05004 -0.310321,-0.09674 -0.474853,-0.139826 -1.262843,-0.285847 -2.655618,-0.180884 -4.177292,0.315533 -2.814085,0.918308 -5.831516,2.56831 -2.719211,5.988283 1.078269,0.844764 2.205943,1.334425 3.383296,1.468796 1.300041,0.174165 2.48996,0.0652 3.569895,-0.326983 3.180568,-1.082732 4.82437,-4.92906 1.584633,-6.795434 z"
         id="path862" />
      <path
         style="color:#000000;font-variant-ligatures:normal;font-variant-position:normal;font-variant-caps:normal;font-variant-numeric:normal;font-variant-alternates:normal;font-feature-settings:normal;text-indent:0;text-decoration:none;text-decoration-line:none;text-decoration-style:solid;text-decoration-color:#000000;text-transform:none;text-orientation:mixed;dominant-baseline:auto;white-space:normal;shape-padding:0;isolation:auto;mix-blend-mode:normal;solid-color:#000000;fill:#ffffff;fill-opacity:0.229431;fill-rule:evenodd;stroke:none;stroke-width:1.16872;stroke-miterlimit:4;stroke-dasharray:none;paint-order:stroke markers fill;color-rendering:auto;image-rendering:auto;shape-rendering:auto"
         d="M 106.60185,38.991983 C 103.54631,37.328156 100.38191,36.385651 97.115634,35.798737 85.59056,33.902626 75.059709,38.348183 69.937662,47.616645 l -0.708103,1.304905 1.375912,-0.587427 c 14.707221,-6.280405 36.586069,-3.210111 48.345469,12.09717 l 0.97045,1.263845 c 0.0947,-6.038057 -1.76128,-12.285071 -5.49083,-16.361614 -2.52135,-2.84362 -5.13264,-4.873463 -7.82871,-6.341541 z"
         id="path1059" />
      <path
         style="color:#000000;font-variant-ligatures:normal;font-variant-position:normal;font-variant-caps:normal;font-variant-numeric:normal;font-variant-alternates:normal;font-feature-settings:normal;text-indent:0;text-decoration:none;text-decoration-line:none;text-decoration-style:solid;text-decoration-color:#000000;text-transform:none;text-orientation:mixed;dominant-baseline:auto;white-space:normal;shape-padding:0;isolation:auto;mix-blend-mode:normal;solid-color:#000000;fill:#ff1493;fill-opacity:1;fill-rule:evenodd;stroke:none;stroke-width:1.10297;stroke-miterlimit:4;stroke-dasharray:none;paint-order:stroke markers fill;color-rendering:auto;image-rendering:auto;shape-rendering:auto"
         d="m 94.116204,61.79924 c -0.144968,-0.04791 -0.295167,-0.09299 -0.451389,-0.134618 -1.19896,-0.276672 -2.518342,-0.186819 -3.957656,0.269851 l -2.89e-4,-9.5e-5 c -2.661774,0.844781 -4.538751,3.32903 -1.904477,5.814901 1.027579,0.800614 2.099821,1.267699 3.216769,1.401499 1.233512,0.171964 2.360665,0.07729 3.38189,-0.284276 3.319312,-1.100047 4.208313,-5.579378 -0.284825,-7.067368 z"
         id="path909" />
      <path
         style="color:#000000;font-variant-ligatures:normal;font-variant-position:normal;font-variant-caps:normal;font-variant-numeric:normal;font-variant-alternates:normal;font-feature-settings:normal;text-indent:0;text-decoration:none;text-decoration-line:none;text-decoration-style:solid;text-decoration-color:#000000;text-transform:none;text-orientation:mixed;dominant-baseline:auto;white-space:normal;shape-padding:0;isolation:auto;mix-blend-mode:normal;solid-color:#000000;fill:#ff1493;fill-opacity:1;fill-rule:evenodd;stroke:none;stroke-width:1.10297;stroke-miterlimit:4;stroke-dasharray:none;paint-order:stroke markers fill;color-rendering:auto;image-rendering:auto;shape-rendering:auto"
         d="M 101.45177,37.99637 C 100.39733,37.647163 99.329174,37.353775 98.260524,37.113563 92.559166,35.832095 86.81893,36.057151 82.74898,37.558695 78.282454,39.20666 75.343792,41.54683 72.835074,45.795847 l -0.721132,1.221694 1.320522,-0.520075 C 87.552438,40.935321 108.03975,44.47398 118.48443,59.372595 l 0.86183,1.230071 0.0256,-1.501838 c 0.0815,-4.857235 -3.04831,-9.93311 -5.91961,-13.257296 -3.10749,-3.776934 -7.4302,-6.333528 -11.99959,-7.846908 z"
         id="path1069" />
    </g>
    <g
       transform="matrix(-1.2777625,-0.06993587,-0.06993587,1.2777625,174.96325,4.8400571)"
       style="display:inline"
       id="g869">
      <path
         id="path864"
         d="m 96.476308,70.879516 c -0.304292,0.237696 -0.663362,0.461464 -1.081297,0.667206 -0.143813,0.07079 -0.293621,0.139285 -0.45024,0.204874 -1.208313,0.459058 -2.599704,0.549983 -4.173215,0.271976 -2.910002,-0.514373 -6.123258,-1.723588 -3.524866,-5.539147 0.947759,-0.985739 1.993983,-1.627368 3.13898,-1.924757 1.260713,-0.353871 2.45214,-0.412489 3.57443,-0.175768 3.295232,0.625683 5.457696,4.197897 2.516191,6.495579 z"
         style="color:#000000;font-variant-ligatures:normal;font-variant-position:normal;font-variant-caps:normal;font-variant-numeric:normal;font-variant-alternates:normal;font-feature-settings:normal;text-indent:0;text-decoration:none;text-decoration-line:none;text-decoration-style:solid;text-decoration-color:#000000;text-transform:none;text-orientation:mixed;dominant-baseline:auto;white-space:normal;shape-padding:0;isolation:auto;mix-blend-mode:normal;solid-color:#000000;fill:#ffffff;fill-opacity:0.229431;fill-rule:evenodd;stroke:none;stroke-width:1.16674;stroke-miterlimit:4;stroke-dasharray:none;paint-order:stroke markers fill;color-rendering:auto;image-rendering:auto;shape-rendering:auto" />
      <path
         id="path860"
         d="m 99.145907,38.042987 c -3.384915,-0.778378 -6.680633,-0.83399 -9.978702,-0.520342 -11.590278,1.274783 -20.520122,8.379448 -22.953416,18.667219 l -0.33011,1.444901 1.164959,-0.934599 C 79.500613,46.708861 101.361,43.780036 116.7813,55.33626 l 1.27272,0.954266 c -1.5319,-5.830658 -4.9954,-11.337911 -9.67683,-14.254805 -3.18846,-2.056255 -6.24463,-3.305945 -9.231331,-3.992746 z"
         style="color:#000000;font-variant-ligatures:normal;font-variant-position:normal;font-variant-caps:normal;font-variant-numeric:normal;font-variant-alternates:normal;font-feature-settings:normal;text-indent:0;text-decoration:none;text-decoration-line:none;text-decoration-style:solid;text-decoration-color:#000000;text-transform:none;text-orientation:mixed;dominant-baseline:auto;white-space:normal;shape-padding:0;isolation:auto;mix-blend-mode:normal;solid-color:#000000;fill:#ffffff;fill-opacity:0.229431;fill-rule:evenodd;stroke:none;stroke-width:1.16674;stroke-miterlimit:4;stroke-dasharray:none;paint-order:stroke markers fill;color-rendering:auto;image-rendering:auto;shape-rendering:auto" />
      <path
         id="path902"
         d="m 94.922676,70.744132 c -0.136605,0.06763 -0.278768,0.133178 -0.427375,0.196162 -1.146452,0.441062 -2.463179,0.53666 -3.949729,0.286436 l -2.69e-4,1.33e-4 c -2.749163,-0.462988 -4.951726,-2.656235 -2.695289,-5.481649 0.903817,-0.935008 1.89841,-1.546577 2.983776,-1.834959 1.195252,-0.342394 2.322638,-0.406354 3.382635,-0.191706 3.434788,0.623411 4.939641,4.926826 0.706295,7.025681 z"
         style="color:#000000;font-variant-ligatures:normal;font-variant-position:normal;font-variant-caps:normal;font-variant-numeric:normal;font-variant-alternates:normal;font-feature-settings:normal;text-indent:0;text-decoration:none;text-decoration-line:none;text-decoration-style:solid;text-decoration-color:#000000;text-transform:none;text-orientation:mixed;dominant-baseline:auto;white-space:normal;shape-padding:0;isolation:auto;mix-blend-mode:normal;solid-color:#000000;fill:#2196f3;fill-opacity:1;fill-rule:evenodd;stroke:none;stroke-width:1.1011;stroke-miterlimit:4;stroke-dasharray:none;paint-order:stroke markers fill;color-rendering:auto;image-rendering:auto;shape-rendering:auto" />
      <path
         id="path30"
         d="m 93.926893,38.470082 c -1.107644,-0.05233 -2.213459,-0.0473 -3.305457,0.009 -5.825944,0.30039 -11.284324,2.05966 -14.793734,4.597246 -3.85133,2.784952 -6.04766,5.824749 -7.31756,10.584216 l -0.36496,1.368411 1.12981,-0.854957 c 12.07853,-9.14236 32.726938,-11.24686 46.773358,0.269839 l 1.15923,0.950989 -0.37908,-1.450801 c -1.22717,-4.691836 -5.60063,-8.730712 -9.25471,-11.154941 -4.00285,-2.796037 -8.846019,-4.092155 -13.645989,-4.318993 z"
         style="color:#000000;font-variant-ligatures:normal;font-variant-position:normal;font-variant-caps:normal;font-variant-numeric:normal;font-variant-alternates:normal;font-feature-settings:normal;text-indent:0;text-decoration:none;text-decoration-line:none;text-decoration-style:solid;text-decoration-color:#000000;text-transform:none;text-orientation:mixed;dominant-baseline:auto;white-space:normal;shape-padding:0;isolation:auto;mix-blend-mode:normal;solid-color:#000000;fill:#2196f3;fill-opacity:1;fill-rule:evenodd;stroke:none;stroke-width:1.1011;stroke-miterlimit:4;stroke-dasharray:none;paint-order:stroke markers fill;color-rendering:auto;image-rendering:auto;shape-rendering:auto" />
    </g>
  </g>
</svg>
