<svg xmlns="http://www.w3.org/2000/svg" id="svg6" version="1.1" height="20" width="20" fill="#fff" viewBox="0 0 25 25"><path id="path4" fill="none" d="M0 0h24v24H0z"/><g transform="translate(-4.78 -3.61) scale(1.49133)" style="font-style:normal;font-variant:normal;font-weight:400;font-stretch:normal;font-size:20.257px;line-height:1.25;font-family:sky-camp;-inkscape-font-specification:sky-camp;fill:#2196f3;fill-opacity:1;stroke-width:.422021" id="text839" aria-label="w"><path id="path873" style="font-style:normal;font-variant:normal;font-weight:400;font-stretch:normal;font-family:sky-camp;-inkscape-font-specification:sky-camp;fill:#2196f3;fill-opacity:1;stroke-width:.422021" d="M19.54 5.11c.03.19 0 .33-.08.44-.05.1-.19.21-.4.32-.18.1-.3.18-.35.23l-.75.76c-.4.4-.73.64-1 .75-.15.08-.4.13-.74.16a6.8 6.8 0 0 0-.68.07 9.6 9.6 0 0 0-1.07.44 22.94 22.94 0 0 1-1.14.36c-.19.1-.45.31-.8.63a2.9 2.9 0 0 1-.83.6c-.63.23-1.3.28-2.01.15a4.03 4.03 0 0 1-1.7-.67c-.24-.21-.5-.6-.76-1.19a4.27 4.27 0 0 0-.75-1.27c0 1.61.04 4.19.12 7.72.08 3.5.05 1.57.02 3.4-.05.04-.18.07-.4.07h-.3c-.25-8.07-.27-9.18-.19-12.53.05-.08.17-.1.36-.08.2 0 .34-.01.4-.04.18-.05.4-.28.67-.67.29-.42.5-.7.63-.83.6-.58 1.4-.9 2.41-.95a7.18 7.18 0 0 1 2.77.27c.85.24 1.64.55 2.37.91.14.03.5.22 1.11.56.6.32 1.08.49 1.43.51.13 0 .31-.05.55-.16.26-.1.46-.17.6-.2.13-.02.3.06.5.24zm-6.6 3.57c.18-.16.48-.32.9-.48.42-.18.69-.32.8-.4.26-.36.41-.83.47-1.38.08-.55.02-1.07-.16-1.54-.37-.9-1.32-1.43-2.85-1.59.82.56 1.2 1.22 1.15 1.98a2.47 2.47 0 0 0-.91-1.5c-.45-.4-.96-.58-1.55-.55.61.13 1.07.44 1.39.94.34.5.51 1.07.51 1.7 0 .61-.09 1.22-.27 1.83-.19.6-.5 1.12-.95 1.54-.42.4-.9.6-1.43.63 1.5.13 2.6-.79 3.29-2.77.02.27-.04.6-.2 1l-.2.59zM7.66 4.64c.16-.13.42-.33.8-.6.39-.26.68-.48.86-.67-.76.1-1.32.53-1.66 1.27zm8.19 2.97c1.08-.16 1.7-.46 1.86-.91.18-.45.18-.8 0-1.03A2.11 2.11 0 0 0 16.69 5c-.47-.19-.75-.3-.83-.36.37.29.55.8.55 1.5.03.72-.16 1.2-.55 1.47zM7.08 7l.51.64c.05.02.1.02.12 0-.32-.61-.21-1.59.32-2.93-.9.47-1.22 1.24-.95 2.3zM19.1 5.67c.24-.24.32-.42.24-.56a.44.44 0 0 1-.2.04.35.35 0 0 0-.16-.04c-.05 0-.07.02-.07.04.05.03.09.12.11.28.03.13.06.21.08.24zm-.9-.28c.18 0 .31.04.39.12l-.2.04c-.08 0-.13.01-.16.04.08.05.12.22.12.51a.6.6 0 0 0 .36-.31c.1-.16.1-.33 0-.52-.3 0-.46.04-.52.12zm-11.76.48a.8.8 0 0 0 .32.79v-.91c-.08-.03-.19.01-.32.12zm2.18 3.56a12.7 12.7 0 0 1-.6-.72c-.28-.42-.52-.67-.7-.75.39.93.82 1.41 1.3 1.47z"/></g></svg>
